<svg width="20" height="21" viewBox="0 0 20 21" fill="none" xmlns="http://www.w3.org/2000/svg">
<path fill-rule="evenodd" clip-rule="evenodd" d="M5 0.125C2.23858 0.125 0 2.36358 0 5.125V15.125C0 17.8864 2.23858 20.125 5 20.125H15C17.7614 20.125 20 17.8864 20 15.125V5.125C20 2.36358 17.7614 0.125 15 0.125H5ZM14.6402 6.3568C15.0645 6.71037 15.1218 7.34093 14.7682 7.76521L9.76823 13.7652C9.59366 13.9747 9.34111 14.1038 9.06907 14.1226C8.79704 14.1415 8.52911 14.0484 8.32733 13.865L5.32733 11.1377C4.91868 10.7662 4.88856 10.1337 5.26007 9.72508C5.63157 9.31642 6.26402 9.28631 6.67268 9.65781L8.90016 11.6828L13.2318 6.48484C13.5853 6.06056 14.2159 6.00324 14.6402 6.3568Z" fill="#F86161"/>
</svg>
