<svg width="231" height="99" viewBox="0 0 231 99" fill="none" xmlns="http://www.w3.org/2000/svg">
<path fill-rule="evenodd" clip-rule="evenodd" d="M99.2884 1.00967C98.6221 1.00967 97.9835 1.27313 97.5131 1.74133L90.5915 8.62986C89.8385 9.37927 89.4159 10.3952 89.4159 11.454C89.4159 12.5127 89.8385 13.5286 90.5915 14.2781C91.3446 15.0275 92.3665 15.449 93.4326 15.449C94.4986 15.449 95.5206 15.0275 96.2737 14.2781L103.195 7.38951C103.393 7.19283 103.712 7.1936 103.909 7.39122C104.106 7.58884 104.105 7.90849 103.907 8.10517L96.9859 14.9937C96.0431 15.932 94.7649 16.4587 93.4326 16.4587C92.1003 16.4587 90.8221 15.932 89.8793 14.9937C88.9364 14.0553 88.4062 12.7821 88.4062 11.454C88.4062 10.1258 88.9364 8.8526 89.8793 7.91421L96.8009 1.02567C97.461 0.368668 98.3559 0 99.2884 0C100.221 0 101.116 0.368668 101.776 1.02567C102.436 1.68276 102.808 2.57447 102.808 3.50478C102.808 4.43509 102.436 5.3268 101.776 5.98389L94.8469 12.8724C94.8468 12.8725 94.847 12.8724 94.8469 12.8724C94.4694 13.248 93.9578 13.4588 93.4251 13.4588C92.8922 13.4588 92.3807 13.2481 92.0032 12.8724C91.6256 12.4966 91.4131 11.9864 91.4131 11.454C91.4131 10.9215 91.6256 10.4113 92.0032 10.0355L98.3978 3.67894C98.5955 3.48237 98.9152 3.48333 99.1117 3.68107C99.3083 3.8788 99.3073 4.19845 99.1096 4.39501L92.7154 10.7511C92.7154 10.7512 92.7155 10.7511 92.7154 10.7511C92.5278 10.938 92.4227 11.1908 92.4227 11.454C92.4227 11.7171 92.5277 11.97 92.7154 12.1568C92.9032 12.3437 93.1584 12.4491 93.4251 12.4491C93.6917 12.4491 93.9469 12.3437 94.1347 12.1568L101.064 5.26823C101.064 5.2683 101.064 5.26817 101.064 5.26823C101.534 4.80014 101.798 4.16565 101.798 3.50478C101.798 2.84382 101.534 2.20944 101.064 1.74133C100.593 1.27313 99.9548 1.00967 99.2884 1.00967Z" fill="#83AD32"/>
<path fill-rule="evenodd" clip-rule="evenodd" d="M166.267 31.0316C166.216 30.7853 165.849 30.4404 165.226 30.5694L152.044 33.2997C151.421 33.4287 151.221 33.8909 151.272 34.1372L151.849 36.9198C151.9 37.1661 152.266 37.511 152.889 37.382L166.071 34.6517C166.694 34.5227 166.894 34.0605 166.843 33.8142L166.267 31.0316ZM164.919 29.0864C166.116 28.8385 167.482 29.4338 167.75 30.7244L168.326 33.5071C168.593 34.7976 167.575 35.8868 166.378 36.1348L153.196 38.865C151.999 39.1129 150.633 38.5176 150.365 37.227L149.789 34.4443C149.522 33.1538 150.54 32.0646 151.737 31.8166L164.919 29.0864ZM154.864 34.8443C154.949 35.2539 154.685 35.6546 154.276 35.7394L154.268 35.7411C153.858 35.8259 153.458 35.5626 153.373 35.1531C153.288 34.7436 153.551 34.3428 153.961 34.258L153.969 34.2564C154.378 34.1716 154.779 34.4348 154.864 34.8443ZM167.996 39.3796C167.945 39.1333 167.578 38.7884 166.955 38.9174L153.773 41.6477C153.15 41.7767 152.95 42.2389 153.001 42.4852L153.578 45.2678C153.629 45.5141 153.995 45.859 154.618 45.73L167.8 42.9997C168.423 42.8707 168.623 42.4085 168.572 42.1622L167.996 39.3796ZM166.648 37.4344C167.845 37.1865 169.211 37.7818 169.479 39.0724L170.055 41.8551C170.322 43.1456 169.304 44.2348 168.107 44.4828L154.926 47.213C153.728 47.4609 152.362 46.8656 152.095 45.575L151.518 42.7923C151.251 41.5018 152.269 40.4126 153.466 40.1646L166.648 37.4344ZM156.593 43.1922C156.678 43.6018 156.415 44.0025 156.005 44.0874L155.997 44.089C155.587 44.1739 155.187 43.9107 155.102 43.5012C155.017 43.0917 155.28 42.6909 155.69 42.606L155.698 42.6044C156.107 42.5195 156.508 42.7827 156.593 43.1922Z" fill="#83AD32"/>
<path fill-rule="evenodd" clip-rule="evenodd" d="M1.809 24.7362C1.59176 24.7362 1.38662 24.8199 1.23789 24.9638C1.08973 25.1072 1.00967 25.2981 1.00967 25.4935V34.3281C1.00967 34.5235 1.08973 34.7144 1.23789 34.8578C1.38662 35.0017 1.59176 35.0854 1.809 35.0854H10.9381C11.1554 35.0854 11.3605 35.0017 11.5092 34.8578C11.6574 34.7144 11.7375 34.5235 11.7375 34.3281V29.9108C11.7375 29.632 11.9635 29.406 12.2423 29.406C12.5211 29.406 12.7471 29.632 12.7471 29.9108V34.3281C12.7471 34.8022 12.5524 35.2534 12.2114 35.5833C11.871 35.9128 11.4127 36.0951 10.9381 36.0951H1.809C1.33447 36.0951 0.876171 35.9128 0.535742 35.5833C0.194751 35.2534 0 34.8022 0 34.3281V25.4935C0 25.0194 0.194751 24.5683 0.535742 24.2383C0.876171 23.9088 1.33447 23.7266 1.809 23.7266H8.98189C9.2607 23.7266 9.48672 23.9526 9.48672 24.2314C9.48672 24.5102 9.2607 24.7362 8.98189 24.7362H1.809ZM13.2571 24.5114C13.451 24.7117 13.4458 25.0313 13.2454 25.2252L6.72464 31.5357C6.52891 31.7251 6.21822 31.7251 6.02249 31.5357L4.06625 29.6425C3.86589 29.4486 3.86065 29.129 4.05454 28.9287C4.24844 28.7283 4.56804 28.7231 4.7684 28.917L6.37356 30.4704L12.5433 24.4997C12.7437 24.3058 13.0633 24.311 13.2571 24.5114Z" fill="#83AD32"/>
<path fill-rule="evenodd" clip-rule="evenodd" d="M214.568 69.6624C214.986 69.7869 215.277 70.1661 215.289 70.6024L215.861 91.4211L220.915 84.128C221.164 83.7693 221.615 83.6109 222.033 83.7354L226.791 85.1513C227.326 85.3104 227.63 85.8726 227.471 86.4071C227.312 86.9415 226.75 87.2458 226.215 87.0868L222.158 85.8795L215.767 95.1031C215.518 95.4619 215.067 95.6203 214.649 95.4958C214.23 95.3713 213.939 94.9921 213.927 94.5558L213.355 73.7371L208.301 81.0302C208.053 81.389 207.602 81.5474 207.183 81.4229L202.425 80.0069C201.891 79.8478 201.586 79.2856 201.745 78.7512C201.905 78.2167 202.467 77.9124 203.001 78.0714L207.058 79.2787L213.45 70.0551C213.698 69.6963 214.149 69.538 214.568 69.6624Z" fill="#83AD32"/>
<path fill-rule="evenodd" clip-rule="evenodd" d="M89.1315 52.0097C88.8453 52.0097 88.5633 52.1309 88.35 52.359C88.1355 52.5883 88.0097 52.906 88.0097 53.2437V65.8761L90.3896 63.3321C90.485 63.2301 90.6185 63.1722 90.7582 63.1722H100.518C100.805 63.1722 101.087 63.0509 101.3 62.8228C101.514 62.5936 101.64 62.2759 101.64 61.9381V53.2437C101.64 52.906 101.514 52.5883 101.3 52.359C101.087 52.1309 100.805 52.0097 100.518 52.0097H89.1315ZM87.6126 51.6693C88.0094 51.2452 88.5549 51 89.1315 51H100.518C101.095 51 101.641 51.2452 102.037 51.6693C102.433 52.0922 102.65 52.6591 102.65 53.2437V61.9381C102.65 62.5227 102.433 63.0896 102.037 63.5126C101.641 63.9367 101.095 64.1818 100.518 64.1818H90.9773L87.8735 67.4997C87.7319 67.651 87.5122 67.7004 87.3194 67.6243C87.1267 67.5482 87 67.362 87 67.1548V53.2437C87 52.6591 87.2169 52.0922 87.6126 51.6693Z" fill="#83AD32"/>
</svg>
